<mxfile host="65bd71144e">
    <diagram id="B2mIAimVheXLZhr3V_hZ" name="Page-1">
        <mxGraphModel dx="1211" dy="604" grid="1" gridSize="10" guides="1" tooltips="1" connect="1" arrows="1" fold="1" page="1" pageScale="1" pageWidth="850" pageHeight="1100" math="0" shadow="0">
            <root>
                <mxCell id="0"/>
                <mxCell id="1" parent="0"/>
                <mxCell id="12" value="" style="group" parent="1" vertex="1" connectable="0">
                    <mxGeometry x="10" y="70" width="1680" height="910" as="geometry"/>
                </mxCell>
                <mxCell id="2" value="" style="rounded=0;whiteSpace=wrap;html=1;" parent="12" vertex="1">
                    <mxGeometry width="1680" height="909.9999999999998" as="geometry"/>
                </mxCell>
                <mxCell id="3" value="App" style="text;html=1;strokeColor=none;fillColor=none;align=center;verticalAlign=middle;whiteSpace=wrap;rounded=0;fontSize=18;" parent="12" vertex="1">
                    <mxGeometry x="730" y="12.638888888888886" width="220" height="25.27777777777777" as="geometry"/>
                </mxCell>
                <mxCell id="43" value="" style="group" parent="12" vertex="1" connectable="0">
                    <mxGeometry x="950" y="353.88888888888886" width="225" height="126.38888888888889" as="geometry"/>
                </mxCell>
                <mxCell id="8" value="" style="rounded=0;whiteSpace=wrap;html=1;fontSize=18;" parent="43" vertex="1">
                    <mxGeometry width="225" height="126.38888888888889" as="geometry"/>
                </mxCell>
                <mxCell id="15" value="ReusableForm" style="text;html=1;strokeColor=none;fillColor=none;align=center;verticalAlign=middle;whiteSpace=wrap;rounded=0;fontSize=18;" parent="43" vertex="1">
                    <mxGeometry x="75.03557874762808" y="4.513888888888888" width="74.92884250474383" height="13.541666666666663" as="geometry"/>
                </mxCell>
                <mxCell id="37" value="Form used to make all events. It takes in information like Date, Location, Name of Event, ect and sends it back into EventList as an Event." style="text;html=1;strokeColor=none;fillColor=none;align=center;verticalAlign=middle;whiteSpace=wrap;rounded=0;" parent="43" vertex="1">
                    <mxGeometry x="5.113636363636363" y="33.70033333333333" width="214.77272727272728" height="27.44661111111111" as="geometry"/>
                </mxCell>
                <mxCell id="42" value="Reusable form is also used for the editing functionality on each Event." style="text;html=1;strokeColor=none;fillColor=none;align=center;verticalAlign=middle;whiteSpace=wrap;rounded=0;" parent="43" vertex="1">
                    <mxGeometry x="5.113636363636363" y="75.83333333333333" width="214.77272727272728" height="10.11111111111111" as="geometry"/>
                </mxCell>
                <mxCell id="11" value="" style="group" parent="12" vertex="1" connectable="0">
                    <mxGeometry x="45" y="165.45532712956336" width="1590" height="568.6176363636364" as="geometry"/>
                </mxCell>
                <mxCell id="6" value="" style="rounded=0;whiteSpace=wrap;html=1;fontSize=18;" parent="11" vertex="1">
                    <mxGeometry width="1590" height="541.3138582677166" as="geometry"/>
                </mxCell>
                <mxCell id="34" value="" style="group" parent="11" vertex="1" connectable="0">
                    <mxGeometry x="19.63" y="109.01459645669291" width="550.37" height="262.4018927952756" as="geometry"/>
                </mxCell>
                <mxCell id="27" value="" style="rounded=0;whiteSpace=wrap;html=1;" parent="34" vertex="1">
                    <mxGeometry width="550.37" height="262.4018927952756" as="geometry"/>
                </mxCell>
                <mxCell id="28" value="EventList" style="text;html=1;strokeColor=none;fillColor=none;align=center;verticalAlign=middle;whiteSpace=wrap;rounded=0;" parent="34" vertex="1">
                    <mxGeometry x="205.47146666666663" y="8.603340747386085" width="139.42706666666666" height="17.20668149477217" as="geometry"/>
                </mxCell>
                <mxCell id="30" value="A list of all the Events within the project, used to organize said Events for handlers within EventControl" style="text;html=1;strokeColor=none;fillColor=none;align=center;verticalAlign=middle;whiteSpace=wrap;rounded=0;" parent="34" vertex="1">
                    <mxGeometry x="7.338266666666666" y="25.810022242158254" width="535.6934666666666" height="68.82672597908868" as="geometry"/>
                </mxCell>
                <mxCell id="29" value="" style="group" parent="34" vertex="1" connectable="0">
                    <mxGeometry x="7.338266666666666" y="111.84342971601913" width="535.6934666666666" height="146.25679270556347" as="geometry"/>
                </mxCell>
                <mxCell id="32" value="" style="group" parent="29" vertex="1" connectable="0">
                    <mxGeometry width="535.6934666666666" height="146.25679270556347" as="geometry"/>
                </mxCell>
                <mxCell id="23" value="" style="rounded=0;whiteSpace=wrap;html=1;" parent="32" vertex="1">
                    <mxGeometry width="535.6934666666666" height="146.25679270556347" as="geometry"/>
                </mxCell>
                <mxCell id="24" value="Event" style="text;html=1;strokeColor=none;fillColor=none;align=center;verticalAlign=middle;whiteSpace=wrap;rounded=0;" parent="32" vertex="1">
                    <mxGeometry x="212.80973333333333" y="8.121553665532467" width="110.07399999999998" height="24.373264337344775" as="geometry"/>
                </mxCell>
                <mxCell id="31" value="Individual events that are stored inside of EventList. Each event contains information of the event's name, location, date, number of attendees, ect." style="text;html=1;strokeColor=none;fillColor=none;align=center;verticalAlign=middle;whiteSpace=wrap;rounded=0;" parent="32" vertex="1">
                    <mxGeometry x="7.338266666666666" y="32.49481800287725" width="521.0169333333333" height="105.15863395530012" as="geometry"/>
                </mxCell>
                <mxCell id="35" value="The main file that handles all interactions with the site through handlers. These handlers affect a variable named currentlyVisibleState to determine which form or Event you will see." style="text;html=1;strokeColor=none;fillColor=none;align=center;verticalAlign=middle;whiteSpace=wrap;rounded=0;" parent="11" vertex="1">
                    <mxGeometry x="19.62962962962963" y="21.508389987011935" width="1472.2222222222222" height="124.74866192466922" as="geometry"/>
                </mxCell>
                <mxCell id="20" value="" style="group" parent="11" vertex="1" connectable="0">
                    <mxGeometry x="587.24" y="109.01459645669291" width="282.76" height="112.77372047244096" as="geometry"/>
                </mxCell>
                <mxCell id="9" value="" style="rounded=0;whiteSpace=wrap;html=1;fontSize=18;" parent="20" vertex="1">
                    <mxGeometry width="282.76" height="112.77372047244096" as="geometry"/>
                </mxCell>
                <mxCell id="19" value="EventDetail" style="text;html=1;strokeColor=none;fillColor=none;align=center;verticalAlign=middle;whiteSpace=wrap;rounded=0;fontSize=18;" parent="20" vertex="1">
                    <mxGeometry x="102.34624288425047" y="4.027632874015747" width="78.06751423149905" height="12.082898622047244" as="geometry"/>
                </mxCell>
                <mxCell id="40" value="Details page that allows you to see all of the information on a single event. On this page you can view the Name, Location, Date, ect of an event, click on a button to say if you are attending said event or not, edit the event, or outright delete the event." style="text;html=1;strokeColor=none;fillColor=none;align=center;verticalAlign=middle;whiteSpace=wrap;rounded=0;" parent="20" vertex="1">
                    <mxGeometry x="8.390504451038575" y="16.111605531496064" width="268.4961424332344" height="89.14386690944883" as="geometry"/>
                </mxCell>
                <mxCell id="50" value="" style="group" parent="11" vertex="1" connectable="0">
                    <mxGeometry x="1165" y="109.01459645669291" width="285" height="338.32116141732286" as="geometry"/>
                </mxCell>
                <mxCell id="51" value="" style="rounded=0;whiteSpace=wrap;html=1;fontSize=18;" parent="50" vertex="1">
                    <mxGeometry width="285" height="338.32116141732286" as="geometry"/>
                </mxCell>
                <mxCell id="52" value="EditEventForm" style="text;html=1;strokeColor=none;fillColor=none;align=center;verticalAlign=middle;whiteSpace=wrap;rounded=0;fontSize=18;" parent="50" vertex="1">
                    <mxGeometry x="103.15702087286527" y="4.027632874015747" width="78.68595825426945" height="12.082898622047244" as="geometry"/>
                </mxCell>
                <mxCell id="53" value="Details page that allows you to see all of the information on a single event. On this page you can view the Name, Location, Date, ect of an event, click on a button to say if you are attending said event or not, edit the event, or outright delete the event." style="text;html=1;strokeColor=none;fillColor=none;align=center;verticalAlign=middle;whiteSpace=wrap;rounded=0;" parent="50" vertex="1">
                    <mxGeometry x="8.456973293768545" y="16.111605531496064" width="270.62314540059344" height="89.14386690944883" as="geometry"/>
                </mxCell>
                <mxCell id="54" value="" style="group" parent="50" vertex="1" connectable="0">
                    <mxGeometry x="30" y="169.16058070866143" width="225" height="112.77372047244096" as="geometry"/>
                </mxCell>
                <mxCell id="55" value="&lt;span style=&quot;color: rgba(0, 0, 0, 0); font-family: monospace; font-size: 0px; text-align: start;&quot;&gt;%3CmxGraphModel%3E%3Croot%3E%3CmxCell%20id%3D%220%22%2F%3E%3CmxCell%20id%3D%221%22%20parent%3D%220%22%2F%3E%3CmxCell%20id%3D%222%22%20value%3D%22Text%22%20style%3D%22text%3Bhtml%3D1%3BstrokeColor%3Dnone%3BfillColor%3Dnone%3Balign%3Dcenter%3BverticalAlign%3Dmiddle%3BwhiteSpace%3Dwrap%3Brounded%3D0%3B%22%20vertex%3D%221%22%20parent%3D%221%22%3E%3CmxGeometry%20x%3D%22830%22%20y%3D%22-127.08333333333334%22%20width%3D%22850%22%20height%3D%22217.54629629629628%22%20as%3D%22geometry%22%2F%3E%3C%2FmxCell%3E%3C%2Froot%3E%3C%2FmxGraphModel%3E&lt;/span&gt;" style="rounded=0;whiteSpace=wrap;html=1;fontSize=18;" parent="54" vertex="1">
                    <mxGeometry width="225" height="112.77372047244096" as="geometry"/>
                </mxCell>
                <mxCell id="56" value="ReusableForm" style="text;html=1;strokeColor=none;fillColor=none;align=center;verticalAlign=middle;whiteSpace=wrap;rounded=0;fontSize=18;" parent="54" vertex="1">
                    <mxGeometry x="75.03557874762808" y="4.027632874015747" width="74.92884250474383" height="12.082898622047244" as="geometry"/>
                </mxCell>
                <mxCell id="57" value="Form used to make all events. It takes in information like Date, Location, Name of Event, ect and sends it back into EventList as an Event." style="text;html=1;strokeColor=none;fillColor=none;align=center;verticalAlign=middle;whiteSpace=wrap;rounded=0;" parent="54" vertex="1">
                    <mxGeometry x="5.113636363636363" y="30.069984826771652" width="214.77272727272728" height="24.489941137795274" as="geometry"/>
                </mxCell>
                <mxCell id="58" value="Reusable form is also used for the editing functionality on each Event." style="text;html=1;strokeColor=none;fillColor=none;align=center;verticalAlign=middle;whiteSpace=wrap;rounded=0;" parent="54" vertex="1">
                    <mxGeometry x="5.113636363636363" y="77.55014137437367" width="214.77272727272728" height="9.021897637795275" as="geometry"/>
                </mxCell>
                <mxCell id="46" value="" style="group" parent="11" vertex="1" connectable="0">
                    <mxGeometry x="875" y="109.01459645669291" width="285" height="342.08028543307086" as="geometry"/>
                </mxCell>
                <mxCell id="47" value="" style="rounded=0;whiteSpace=wrap;html=1;fontSize=18;" parent="46" vertex="1">
                    <mxGeometry width="285" height="342.08028543307086" as="geometry"/>
                </mxCell>
                <mxCell id="48" value="NewEventForm" style="text;html=1;strokeColor=none;fillColor=none;align=center;verticalAlign=middle;whiteSpace=wrap;rounded=0;fontSize=18;" parent="46" vertex="1">
                    <mxGeometry x="103.15702087286527" y="12.217153051181098" width="78.68595825426945" height="36.6514591535433" as="geometry"/>
                </mxCell>
                <mxCell id="49" value="Details page that allows you to see all of the information on a single event. On this page you can view the Name, Location, Date, ect of an event, click on a button to say if you are attending said event or not, edit the event, or outright delete the event." style="text;html=1;strokeColor=none;fillColor=none;align=center;verticalAlign=middle;whiteSpace=wrap;rounded=0;" parent="46" vertex="1">
                    <mxGeometry x="7.19" y="12.217153051181102" width="270.62" height="130.62955954724407" as="geometry"/>
                </mxCell>
                <mxCell id="59" value="&lt;span style=&quot;color: rgba(0, 0, 0, 0); font-family: monospace; font-size: 0px; text-align: start;&quot;&gt;%3CmxGraphModel%3E%3Croot%3E%3CmxCell%20id%3D%220%22%2F%3E%3CmxCell%20id%3D%221%22%20parent%3D%220%22%2F%3E%3CmxCell%20id%3D%222%22%20value%3D%22Text%22%20style%3D%22text%3Bhtml%3D1%3BstrokeColor%3Dnone%3BfillColor%3Dnone%3Balign%3Dcenter%3BverticalAlign%3Dmiddle%3BwhiteSpace%3Dwrap%3Brounded%3D0%3B%22%20vertex%3D%221%22%20parent%3D%221%22%3E%3CmxGeometry%20x%3D%22830%22%20y%3D%22-127.08333333333334%22%20width%3D%22850%22%20height%3D%22217.54629629629628%22%20as%3D%22geometry%22%2F%3E%3C%2FmxCell%3E%3C%2Froot%3E%3C%2FmxGraphModel%3E&lt;/span&gt;" style="rounded=0;whiteSpace=wrap;html=1;fontSize=18;" parent="46" vertex="1">
                    <mxGeometry x="30" y="172.25458070866145" width="225" height="112.77372047244096" as="geometry"/>
                </mxCell>
                <mxCell id="60" value="ReusableForm" style="text;html=1;strokeColor=none;fillColor=none;align=center;verticalAlign=middle;whiteSpace=wrap;rounded=0;fontSize=18;" parent="46" vertex="1">
                    <mxGeometry x="105.03557874762805" y="176.38975903722263" width="74.92884250474383" height="12.082898622047244" as="geometry"/>
                </mxCell>
                <mxCell id="61" value="8" style="group" parent="11" vertex="1" connectable="0">
                    <mxGeometry width="1590" height="568.6176363636364" as="geometry"/>
                </mxCell>
                <mxCell id="62" value="" style="rounded=0;whiteSpace=wrap;html=1;fontSize=18;" parent="61" vertex="1">
                    <mxGeometry width="1590" height="568.6176363636363" as="geometry"/>
                </mxCell>
                <mxCell id="63" value="EventControl" style="text;html=1;strokeColor=none;fillColor=none;align=center;verticalAlign=middle;whiteSpace=wrap;rounded=0;fontSize=18;" parent="61" vertex="1">
                    <mxGeometry x="422.03703703703707" y="6.231887602326584" width="667.4074074074074" height="12.463775204653167" as="geometry"/>
                </mxCell>
                <mxCell id="64" value="" style="group" parent="61" vertex="1" connectable="0">
                    <mxGeometry x="19.63" y="114.51327398989899" width="550.37" height="275.63739922727274" as="geometry"/>
                </mxCell>
                <mxCell id="65" value="" style="rounded=0;whiteSpace=wrap;html=1;" parent="64" vertex="1">
                    <mxGeometry width="550.37" height="275.63739922727274" as="geometry"/>
                </mxCell>
                <mxCell id="66" value="EventList" style="text;html=1;strokeColor=none;fillColor=none;align=center;verticalAlign=middle;whiteSpace=wrap;rounded=0;" parent="64" vertex="1">
                    <mxGeometry x="205.47146666666663" y="9.037291777943368" width="139.42706666666666" height="18.074583555886736" as="geometry"/>
                </mxCell>
                <mxCell id="67" value="A list of all the Events within the project, used to organize said Events for handlers within EventControl" style="text;html=1;strokeColor=none;fillColor=none;align=center;verticalAlign=middle;whiteSpace=wrap;rounded=0;" parent="64" vertex="1">
                    <mxGeometry x="7.338266666666666" y="27.1118753338301" width="535.6934666666666" height="72.29833422354695" as="geometry"/>
                </mxCell>
                <mxCell id="68" value="" style="group" parent="64" vertex="1" connectable="0">
                    <mxGeometry x="7.338266666666666" y="117.48479311326379" width="535.6934666666666" height="153.63396022503727" as="geometry"/>
                </mxCell>
                <mxCell id="69" value="" style="group" parent="68" vertex="1" connectable="0">
                    <mxGeometry width="535.6934666666666" height="153.63396022503727" as="geometry"/>
                </mxCell>
                <mxCell id="70" value="" style="rounded=0;whiteSpace=wrap;html=1;" parent="69" vertex="1">
                    <mxGeometry width="535.6934666666666" height="153.63396022503727" as="geometry"/>
                </mxCell>
                <mxCell id="71" value="Event" style="text;html=1;strokeColor=none;fillColor=none;align=center;verticalAlign=middle;whiteSpace=wrap;rounded=0;" parent="69" vertex="1">
                    <mxGeometry x="212.80973333333333" y="8.53120343837854" width="110.07399999999998" height="25.602647606913553" as="geometry"/>
                </mxCell>
                <mxCell id="72" value="Individual events that are stored inside of EventList. Each event contains information of the event's name, location, date, number of attendees, ect." style="text;html=1;strokeColor=none;fillColor=none;align=center;verticalAlign=middle;whiteSpace=wrap;rounded=0;" parent="69" vertex="1">
                    <mxGeometry x="7.338266666666666" y="34.133851045292104" width="521.0169333333333" height="110.46281740180179" as="geometry"/>
                </mxCell>
                <mxCell id="73" value="The main file that handles all interactions with the site through handlers. These handlers affect a variable named currentlyVisibleState to determine which form or Event you will see." style="text;html=1;strokeColor=none;fillColor=none;align=center;verticalAlign=middle;whiteSpace=wrap;rounded=0;" parent="61" vertex="1">
                    <mxGeometry x="19.62962962962963" y="22.59326948609809" width="1472.2222222222222" height="131.04096301936895" as="geometry"/>
                </mxCell>
                <mxCell id="74" value="" style="group" parent="61" vertex="1" connectable="0">
                    <mxGeometry x="587.24" y="114.51327398989899" width="282.76" height="118.46200757575757" as="geometry"/>
                </mxCell>
                <mxCell id="75" value="" style="rounded=0;whiteSpace=wrap;html=1;fontSize=18;" parent="74" vertex="1">
                    <mxGeometry width="282.76" height="118.46200757575757" as="geometry"/>
                </mxCell>
                <mxCell id="76" value="EventDetail" style="text;html=1;strokeColor=none;fillColor=none;align=center;verticalAlign=middle;whiteSpace=wrap;rounded=0;fontSize=18;" parent="74" vertex="1">
                    <mxGeometry x="102.34624288425047" y="4.230785984848484" width="78.06751423149905" height="12.692357954545452" as="geometry"/>
                </mxCell>
                <mxCell id="77" value="Details page that allows you to see all of the information on a single event. On this page you can view the Name, Location, Date, ect of an event, click on a button to say if you are attending said event or not, edit the event, or outright delete the event." style="text;html=1;strokeColor=none;fillColor=none;align=center;verticalAlign=middle;whiteSpace=wrap;rounded=0;" parent="74" vertex="1">
                    <mxGeometry x="8.390504451038575" y="16.924272148989896" width="268.4961424332344" height="93.6402682550505" as="geometry"/>
                </mxCell>
                <mxCell id="78" value="" style="group" parent="61" vertex="1" connectable="0">
                    <mxGeometry x="1165" y="114.51327398989899" width="285" height="355.3860227272727" as="geometry"/>
                </mxCell>
                <mxCell id="79" value="" style="rounded=0;whiteSpace=wrap;html=1;fontSize=18;" parent="78" vertex="1">
                    <mxGeometry width="285" height="355.3860227272727" as="geometry"/>
                </mxCell>
                <mxCell id="80" value="EditEventForm" style="text;html=1;strokeColor=none;fillColor=none;align=center;verticalAlign=middle;whiteSpace=wrap;rounded=0;fontSize=18;" parent="78" vertex="1">
                    <mxGeometry x="103.15702087286527" y="4.230785984848484" width="78.68595825426945" height="12.692357954545452" as="geometry"/>
                </mxCell>
                <mxCell id="81" value="Edit page that allows you to update all of the information on a single event. On this page you can change the Name, Location, Date, ect of an event, or click on a button to outright delete the event." style="text;html=1;strokeColor=none;fillColor=none;align=center;verticalAlign=middle;whiteSpace=wrap;rounded=0;" parent="78" vertex="1">
                    <mxGeometry x="8.456973293768545" y="16.924272148989896" width="270.62314540059344" height="93.6402682550505" as="geometry"/>
                </mxCell>
                <mxCell id="82" value="" style="group" parent="78" vertex="1" connectable="0">
                    <mxGeometry x="30" y="177.69301136363634" width="225" height="118.46200757575757" as="geometry"/>
                </mxCell>
                <mxCell id="83" value="&lt;span style=&quot;color: rgba(0, 0, 0, 0); font-family: monospace; font-size: 0px; text-align: start;&quot;&gt;%3CmxGraphModel%3E%3Croot%3E%3CmxCell%20id%3D%220%22%2F%3E%3CmxCell%20id%3D%221%22%20parent%3D%220%22%2F%3E%3CmxCell%20id%3D%222%22%20value%3D%22Text%22%20style%3D%22text%3Bhtml%3D1%3BstrokeColor%3Dnone%3BfillColor%3Dnone%3Balign%3Dcenter%3BverticalAlign%3Dmiddle%3BwhiteSpace%3Dwrap%3Brounded%3D0%3B%22%20vertex%3D%221%22%20parent%3D%221%22%3E%3CmxGeometry%20x%3D%22830%22%20y%3D%22-127.08333333333334%22%20width%3D%22850%22%20height%3D%22217.54629629629628%22%20as%3D%22geometry%22%2F%3E%3C%2FmxCell%3E%3C%2Froot%3E%3C%2FmxGraphModel%3E&lt;/span&gt;" style="rounded=0;whiteSpace=wrap;html=1;fontSize=18;" parent="82" vertex="1">
                    <mxGeometry width="225" height="118.46200757575757" as="geometry"/>
                </mxCell>
                <mxCell id="84" value="ReusableForm" style="text;html=1;strokeColor=none;fillColor=none;align=center;verticalAlign=middle;whiteSpace=wrap;rounded=0;fontSize=18;" parent="82" vertex="1">
                    <mxGeometry x="75.03557874762808" y="4.230785984848484" width="74.92884250474383" height="12.692357954545452" as="geometry"/>
                </mxCell>
                <mxCell id="85" value="Form used to make all events. It takes in information like Date, Location, Name of Event, ect and sends it back into EventList as an Event." style="text;html=1;strokeColor=none;fillColor=none;align=center;verticalAlign=middle;whiteSpace=wrap;rounded=0;" parent="82" vertex="1">
                    <mxGeometry x="5.113636363636363" y="42.33670969999999" width="214.77272727272728" height="25.725209565151513" as="geometry"/>
                </mxCell>
                <mxCell id="86" value="Reusable form is also used for the editing functionality on each Event." style="text;html=1;strokeColor=none;fillColor=none;align=center;verticalAlign=middle;whiteSpace=wrap;rounded=0;" parent="82" vertex="1">
                    <mxGeometry x="5.113636363636363" y="92.34175719401873" width="214.77272727272728" height="9.476960606060604" as="geometry"/>
                </mxCell>
                <mxCell id="87" value="" style="group" parent="61" vertex="1" connectable="0">
                    <mxGeometry x="875" y="114.51327398989899" width="285" height="359.3347563131312" as="geometry"/>
                </mxCell>
                <mxCell id="88" value="" style="rounded=0;whiteSpace=wrap;html=1;fontSize=18;" parent="87" vertex="1">
                    <mxGeometry width="285" height="359.3347563131312" as="geometry"/>
                </mxCell>
                <mxCell id="89" value="NewEventForm" style="text;html=1;strokeColor=none;fillColor=none;align=center;verticalAlign=middle;whiteSpace=wrap;rounded=0;fontSize=18;" parent="87" vertex="1">
                    <mxGeometry x="103.15702087286527" y="12.833384154040399" width="78.68595825426945" height="38.5001524621212" as="geometry"/>
                </mxCell>
                <mxCell id="90" value="The form that is used for making new events. It takes in info for the events Name, Location, Date, ect as inputs during creation." style="text;html=1;strokeColor=none;fillColor=none;align=center;verticalAlign=middle;whiteSpace=wrap;rounded=0;" parent="87" vertex="1">
                    <mxGeometry x="7.19" y="12.8333841540404" width="270.62" height="137.21849210858582" as="geometry"/>
                </mxCell>
                <mxCell id="91" value="&lt;span style=&quot;color: rgba(0, 0, 0, 0); font-family: monospace; font-size: 0px; text-align: start;&quot;&gt;%3CmxGraphModel%3E%3Croot%3E%3CmxCell%20id%3D%220%22%2F%3E%3CmxCell%20id%3D%221%22%20parent%3D%220%22%2F%3E%3CmxCell%20id%3D%222%22%20value%3D%22Text%22%20style%3D%22text%3Bhtml%3D1%3BstrokeColor%3Dnone%3BfillColor%3Dnone%3Balign%3Dcenter%3BverticalAlign%3Dmiddle%3BwhiteSpace%3Dwrap%3Brounded%3D0%3B%22%20vertex%3D%221%22%20parent%3D%221%22%3E%3CmxGeometry%20x%3D%22830%22%20y%3D%22-127.08333333333334%22%20width%3D%22850%22%20height%3D%22217.54629629629628%22%20as%3D%22geometry%22%2F%3E%3C%2FmxCell%3E%3C%2Froot%3E%3C%2FmxGraphModel%3E&lt;/span&gt;" style="rounded=0;whiteSpace=wrap;html=1;fontSize=18;" parent="87" vertex="1">
                    <mxGeometry x="30" y="180.94307219255938" width="225" height="118.46200757575757" as="geometry"/>
                </mxCell>
                <mxCell id="92" value="ReusableForm" style="text;html=1;strokeColor=none;fillColor=none;align=center;verticalAlign=middle;whiteSpace=wrap;rounded=0;fontSize=18;" parent="87" vertex="1">
                    <mxGeometry x="105.03557874762805" y="185.28682820622072" width="74.92884250474383" height="12.692357954545452" as="geometry"/>
                </mxCell>
                <mxCell id="93" value="Form used to make all events. It takes in information like Date, Location, Name of Event, ect and sends it back into EventList as an Event." style="text;html=1;strokeColor=none;fillColor=none;align=center;verticalAlign=middle;whiteSpace=wrap;rounded=0;" parent="87" vertex="1">
                    <mxGeometry x="35.11363636363626" y="220.0315392454545" width="214.77272727272728" height="25.725209565151513" as="geometry"/>
                </mxCell>
                <mxCell id="94" value="Reusable form is also used for the editing functionality on each Event." style="text;html=1;strokeColor=none;fillColor=none;align=center;verticalAlign=middle;whiteSpace=wrap;rounded=0;" parent="87" vertex="1">
                    <mxGeometry x="35.11363636363626" y="270.03395037583675" width="214.77272727272728" height="9.476960606060604" as="geometry"/>
                </mxCell>
                <mxCell id="10" value="" style="group" parent="12" vertex="1" connectable="0">
                    <mxGeometry x="45" y="49.633627773801" width="1590" height="100.31496062992126" as="geometry"/>
                </mxCell>
                <mxCell id="4" value="" style="rounded=0;whiteSpace=wrap;html=1;fontSize=18;" parent="10" vertex="1">
                    <mxGeometry width="1590" height="100.31496062992126" as="geometry"/>
                </mxCell>
                <mxCell id="5" value="Header" style="text;html=1;strokeColor=none;fillColor=none;align=center;verticalAlign=middle;whiteSpace=wrap;rounded=0;fontSize=18;" parent="10" vertex="1">
                    <mxGeometry x="704.1428571428571" y="7.165354330708662" width="181.71428571428572" height="21.496062992125985" as="geometry"/>
                </mxCell>
                <mxCell id="21" value="Top of the application. It doesn't have any functionality but it could later on. For now it's purely decorative." style="text;html=1;strokeColor=none;fillColor=none;align=center;verticalAlign=middle;whiteSpace=wrap;rounded=0;" parent="10" vertex="1">
                    <mxGeometry x="30.285714285714285" y="28.661417322834648" width="1544.5714285714284" height="57.322834645669296" as="geometry"/>
                </mxCell>
            </root>
        </mxGraphModel>
    </diagram>
</mxfile>